<?xml version="1.0" standalone="no"?>
<svg xmlns="http://www.w3.org/2000/svg" xmlns:xlink="http://www.w3.org/1999/xlink" width="530pt" height="1363pt" viewBox="0.00 0.00 529.65 1363.2">
<g id="graph0" class="graph" transform="translate(81.65143299245034,1163.3945442150725) scale(0.8705505632961242)" data-name="FrankenText">

<polygon fill="white" stroke="none" points="-36,36 -36,-1327.2 493.65,-1327.2 493.65,36 -36,36"/>

<g id="clust2" class="cluster" data-name="cluster_eclm">

<polygon fill="none" stroke="#b3b3b3" stroke-dasharray="5,2" points="70.65,-65 70.65,-440.6 449.65,-440.6 449.65,-65 70.65,-65"/>
<text text-anchor="middle" x="260.15" y="-424" font-family="Times,serif" font-size="14.00">Find sætning der slutter med '!'</text>
</g><g id="clust1" class="cluster" data-name="cluster_qstn">

<polygon fill="none" stroke="#b3b3b3" stroke-dasharray="5,2" points="35.65,-459.6 35.65,-913.8 414.65,-913.8 414.65,-459.6 35.65,-459.6"/>
<text text-anchor="middle" x="225.15" y="-897.2" font-family="Times,serif" font-size="14.00">Find sætning der slutter med '?'</text>
</g>
<!-- start -->
<g id="node1" class="node" pointer-events="visible" data-name="start">

<ellipse fill="none" stroke="black" cx="181.65" cy="-1273.2" rx="29.05" ry="18"/>
<text text-anchor="middle" x="181.65" y="-1269" font-family="Times,serif" font-size="14.00">Start</text>
</g>
<!-- load -->
<g id="node2" class="node" pointer-events="visible" data-name="indlaes" data-comment="load">

<polygon fill="none" stroke="black" points="274.23,-1218 89.07,-1218 89.07,-1176.8 274.23,-1176.8 274.23,-1218"/>
<text text-anchor="middle" x="181.65" y="-1201.6" font-family="Times,serif" font-size="14.00">Indlæs bogtekst </text>
<text text-anchor="middle" x="181.65" y="-1184.8" font-family="Times,serif" font-size="14.00">  ( book[]={embed pg84.txt} )</text>
</g>
<!-- start&#45;&gt;load -->
<g id="edge1" class="edge" data-name="start-&gt;indlaes" data-comment="start-&gt;load">

<path fill="none" stroke="black" d="M181.65,-1254.71C181.65,-1247.21 181.65,-1238.21 181.65,-1229.63"/>
<polygon fill="black" stroke="black" points="185.15,-1229.88 181.65,-1219.88 178.15,-1229.88 185.15,-1229.88"/>
</g>
<!-- clean -->
<g id="node3" class="node" pointer-events="visible" data-name="rens" data-comment="clean">

<polygon fill="none" stroke="black" points="321.98,-1139.4 41.32,-1139.4 41.32,-1098.2 321.98,-1098.2 321.98,-1139.4"/>
<text text-anchor="middle" x="181.65" y="-1123" font-family="Times,serif" font-size="14.00">Ikke-printbare tegn udbyttes med mellemrum </text>
<text text-anchor="middle" x="181.65" y="-1106.2" font-family="Times,serif" font-size="14.00">  ( replace_non_printable_chars_with_space() )</text>
</g>
<!-- load&#45;&gt;clean -->
<g id="edge2" class="edge" data-name="indlaes-&gt;rens" data-comment="load-&gt;clean">

<path fill="none" stroke="black" d="M181.65,-1176.67C181.65,-1168.87 181.65,-1159.71 181.65,-1151.05"/>
<polygon fill="black" stroke="black" points="185.15,-1151.24 181.65,-1141.24 178.15,-1151.24 185.15,-1151.24"/>
</g>
<!-- split -->
<g id="node4" class="node" pointer-events="visible" data-name="split">

<polygon fill="none" stroke="black" points="309.8,-1060.8 53.51,-1060.8 53.51,-1019.6 309.8,-1019.6 309.8,-1060.8"/>
<text text-anchor="middle" x="181.65" y="-1044.4" font-family="Times,serif" font-size="14.00">Tokenisér tekst og opbyg efterfølger-tabel </text>
<text text-anchor="middle" x="181.65" y="-1027.6" font-family="Times,serif" font-size="14.00">  ( tokenize_and_fill_succs() )</text>
</g>
<!-- clean&#45;&gt;split -->
<g id="edge3" class="edge" data-name="rens-&gt;split" data-comment="clean-&gt;split">

<path fill="none" stroke="black" d="M181.65,-1098.07C181.65,-1090.27 181.65,-1081.11 181.65,-1072.45"/>
<polygon fill="black" stroke="black" points="185.15,-1072.64 181.65,-1062.64 178.15,-1072.64 185.15,-1072.64"/>
</g>
<!-- rng -->
<g id="node5" class="node" pointer-events="visible" data-name="rng">

<polygon fill="none" stroke="black" points="256.66,-982.2 106.65,-982.2 106.65,-941 256.66,-941 256.66,-982.2"/>
<text text-anchor="middle" x="181.65" y="-965.8" font-family="Times,serif" font-size="14.00">Init. tilfældighed (seed) </text>
<text text-anchor="middle" x="181.65" y="-949" font-family="Times,serif" font-size="14.00">  ( srand(time(NULL)) )</text>
</g>
<!-- split&#45;&gt;rng -->
<g id="edge4" class="edge" data-name="split-&gt;rng">

<path fill="none" stroke="black" d="M181.65,-1019.47C181.65,-1011.67 181.65,-1002.51 181.65,-993.85"/>
<polygon fill="black" stroke="black" points="185.15,-994.04 181.65,-984.04 178.15,-994.04 185.15,-994.04"/>
</g>
<!-- initQ -->
<g id="node6" class="node" pointer-events="visible" data-name="initQ">

<polygon fill="none" stroke="black" points="268.8,-880.8 94.5,-880.8 94.5,-839.6 268.8,-839.6 268.8,-880.8"/>
<text text-anchor="middle" x="181.65" y="-864.4" font-family="Times,serif" font-size="14.00">Nulstil sætning (tom buffer) </text>
<text text-anchor="middle" x="181.65" y="-847.6" font-family="Times,serif" font-size="14.00">  ( sentence[0] = '\0' )</text>
</g>
<!-- rng&#45;&gt;initQ -->
<g id="edge5" class="edge" data-name="rng-&gt;initQ">

<path fill="none" stroke="black" d="M181.65,-940.96C181.65,-927.17 181.65,-908.42 181.65,-892.57"/>
<polygon fill="black" stroke="black" points="185.15,-892.65 181.65,-882.65 178.15,-892.65 185.15,-892.65"/>
</g>
<!-- genQ -->
<g id="node7" class="node" pointer-events="visible" data-name="genQ">

<polygon fill="none" stroke="black" points="406.22,-802.2 115.09,-802.2 115.09,-761 406.22,-761 406.22,-802.2"/>
<text text-anchor="middle" x="260.65" y="-785.8" font-family="Times,serif" font-size="14.00">Generér tilfældig sætning </text>
<text text-anchor="middle" x="260.65" y="-769" font-family="Times,serif" font-size="14.00">  ( generate_sentence(sentence, sizeof sentence) )</text>
</g>
<!-- initQ&#45;&gt;genQ -->
<g id="edge6" class="edge" data-name="initQ-&gt;genQ">

<path fill="none" stroke="black" d="M202,-839.47C211.14,-830.61 222.09,-819.99 232.04,-810.34"/>
<polygon fill="black" stroke="black" points="234.27,-813.05 239.02,-803.58 229.4,-808.03 234.27,-813.05"/>
</g>
<!-- testQ -->
<g id="node8" class="node" pointer-events="visible" data-name="testQ">

<polygon fill="none" stroke="black" points="225.65,-723.9 44.31,-682.2 225.65,-640.5 407,-682.2 225.65,-723.9"/>
<text text-anchor="middle" x="225.65" y="-686.4" font-family="Times,serif" font-size="14.00">Sidste tegn = '?'? </text>
<text text-anchor="middle" x="225.65" y="-669.6" font-family="Times,serif" font-size="14.00">  ( last_char(sentence) == '?' )</text>
</g>
<!-- genQ&#45;&gt;testQ -->
<g id="edge7" class="edge" data-name="genQ-&gt;testQ">

<path fill="none" stroke="black" d="M253.57,-760.89C250.52,-752.39 246.8,-742.04 243.08,-731.7"/>
<polygon fill="black" stroke="black" points="246.43,-730.66 239.75,-722.43 239.84,-733.03 246.43,-730.66"/>
</g>
<!-- testQ&#45;&gt;initQ -->
<g id="edge9" class="edge" data-name="testQ-&gt;initQ">

<path fill="none" stroke="black" d="M41.65,-682.2C-36.9,-682.2 6.66,-843.9 82.27,-859.06"/>
<polygon fill="black" stroke="black" points="81.85,-862.54 92.15,-860.05 82.54,-855.57 81.85,-862.54"/>
<text text-anchor="middle" x="29.16" y="-777.4" font-family="Helvetica,sans-Serif" font-size="14.00">Nej</text>
</g>
<!-- outQ -->
<g id="node9" class="node" pointer-events="visible" data-name="outQ">

<polygon fill="none" stroke="black" points="285.83,-587.6 165.47,-587.6 165.47,-546.4 285.83,-546.4 285.83,-587.6"/>
<text text-anchor="middle" x="225.65" y="-571.2" font-family="Times,serif" font-size="14.00">Udskriv sætning </text>
<text text-anchor="middle" x="225.65" y="-554.4" font-family="Times,serif" font-size="14.00">  ( puts(sentence) )</text>
</g>
<!-- testQ&#45;&gt;outQ -->
<g id="edge8" class="edge" data-name="testQ-&gt;outQ">

<path fill="none" stroke="black" d="M225.65,-640.01C225.65,-626.6 225.65,-611.93 225.65,-599.36"/>
<polygon fill="black" stroke="black" points="229.15,-599.57 225.65,-589.57 222.15,-599.57 229.15,-599.57"/>
<text text-anchor="middle" x="233.05" y="-610" font-family="Helvetica,sans-Serif" font-size="14.00">Ja</text>
</g>
<!-- blank -->
<g id="node10" class="node" pointer-events="visible" data-name="blank">

<polygon fill="none" stroke="black" points="284.93,-509 166.38,-509 166.38,-467.8 284.93,-467.8 284.93,-509"/>
<text text-anchor="middle" x="225.65" y="-492.6" font-family="Times,serif" font-size="14.00">Udskriv tom linje </text>
<text text-anchor="middle" x="225.65" y="-475.8" font-family="Times,serif" font-size="14.00">  ( puts("") )</text>
</g>
<!-- outQ&#45;&gt;blank -->
<g id="edge10" class="edge" data-name="outQ-&gt;blank">

<path fill="none" stroke="black" d="M225.65,-546.27C225.65,-538.47 225.65,-529.31 225.65,-520.65"/>
<polygon fill="black" stroke="black" points="229.15,-520.84 225.65,-510.84 222.15,-520.84 229.15,-520.84"/>
</g>
<!-- initE -->
<g id="node11" class="node" pointer-events="visible" data-name="initE">

<polygon fill="none" stroke="black" points="312.8,-407.6 138.5,-407.6 138.5,-366.4 312.8,-366.4 312.8,-407.6"/>
<text text-anchor="middle" x="225.65" y="-391.2" font-family="Times,serif" font-size="14.00">Nulstil sætning (tom buffer) </text>
<text text-anchor="middle" x="225.65" y="-374.4" font-family="Times,serif" font-size="14.00">  ( sentence[0] = '\0' )</text>
</g>
<!-- blank&#45;&gt;initE -->
<g id="edge11" class="edge" data-name="blank-&gt;initE">

<path fill="none" stroke="black" d="M225.65,-467.76C225.65,-453.97 225.65,-435.22 225.65,-419.37"/>
<polygon fill="black" stroke="black" points="229.15,-419.45 225.65,-409.45 222.15,-419.45 229.15,-419.45"/>
</g>
<!-- genE -->
<g id="node12" class="node" pointer-events="visible" data-name="genE">

<polygon fill="none" stroke="black" points="441.22,-329 150.09,-329 150.09,-287.8 441.22,-287.8 441.22,-329"/>
<text text-anchor="middle" x="295.65" y="-312.6" font-family="Times,serif" font-size="14.00">Generér tilfældig sætning </text>
<text text-anchor="middle" x="295.65" y="-295.8" font-family="Times,serif" font-size="14.00">  ( generate_sentence(sentence, sizeof sentence) )</text>
</g>
<!-- initE&#45;&gt;genE -->
<g id="edge12" class="edge" data-name="initE-&gt;genE">

<path fill="none" stroke="black" d="M243.68,-366.27C251.62,-357.59 261.1,-347.21 269.77,-337.72"/>
<polygon fill="black" stroke="black" points="272.26,-340.19 276.42,-330.44 267.09,-335.46 272.26,-340.19"/>
</g>
<!-- testE -->
<g id="node13" class="node" pointer-events="visible" data-name="testE">

<polygon fill="none" stroke="black" points="261.65,-250.7 81.91,-209 261.65,-167.3 441.39,-209 261.65,-250.7"/>
<text text-anchor="middle" x="261.65" y="-213.2" font-family="Times,serif" font-size="14.00">Sidste tegn = '!'? </text>
<text text-anchor="middle" x="261.65" y="-196.4" font-family="Times,serif" font-size="14.00">  ( last_char(sentence) == '!' )</text>
</g>
<!-- genE&#45;&gt;testE -->
<g id="edge13" class="edge" data-name="genE-&gt;testE">

<path fill="none" stroke="black" d="M288.77,-287.69C285.81,-279.19 282.19,-268.84 278.58,-258.5"/>
<polygon fill="black" stroke="black" points="281.95,-257.53 275.35,-249.24 275.34,-259.83 281.95,-257.53"/>
</g>
<!-- testE&#45;&gt;initE -->
<g id="edge15" class="edge" data-name="testE-&gt;initE">

<path fill="none" stroke="black" d="M78.65,-209C-0.95,-209 49.3,-371.37 126.58,-385.95"/>
<polygon fill="black" stroke="black" points="125.86,-389.4 136.15,-386.86 126.52,-382.43 125.86,-389.4"/>
<text text-anchor="middle" x="70.16" y="-304.2" font-family="Helvetica,sans-Serif" font-size="14.00">Nej</text>
</g>
<!-- outE -->
<g id="node14" class="node" pointer-events="visible" data-name="outE">

<polygon fill="none" stroke="black" points="321.83,-114.4 201.47,-114.4 201.47,-73.2 321.83,-73.2 321.83,-114.4"/>
<text text-anchor="middle" x="261.65" y="-98" font-family="Times,serif" font-size="14.00">Udskriv sætning </text>
<text text-anchor="middle" x="261.65" y="-81.2" font-family="Times,serif" font-size="14.00">  ( puts(sentence) )</text>
</g>
<!-- testE&#45;&gt;outE -->
<g id="edge14" class="edge" data-name="testE-&gt;outE">

<path fill="none" stroke="black" d="M261.65,-166.81C261.65,-153.4 261.65,-138.73 261.65,-126.16"/>
<polygon fill="black" stroke="black" points="265.15,-126.37 261.65,-116.37 258.15,-126.37 265.15,-126.37"/>
<text text-anchor="middle" x="269.05" y="-136.8" font-family="Helvetica,sans-Serif" font-size="14.00">Ja</text>
</g>
<!-- stop -->
<g id="node15" class="node" pointer-events="visible" data-name="stop">

<ellipse fill="none" stroke="black" cx="261.65" cy="-18" rx="29" ry="18"/>
<text text-anchor="middle" x="261.65" y="-13.8" font-family="Times,serif" font-size="14.00">Stop</text>
</g>
<!-- outE&#45;&gt;stop -->
<g id="edge16" class="edge" data-name="outE-&gt;stop">

<path fill="none" stroke="black" d="M261.65,-73.02C261.65,-65.25 261.65,-56.16 261.65,-47.69"/>
<polygon fill="black" stroke="black" points="265.15,-47.83 261.65,-37.83 258.15,-47.83 265.15,-47.83"/>
</g>
</g>
</svg>